<svg width="1600" height="420" viewBox="0 0 1600 420" xmlns="http://www.w3.org/2000/svg" role="img" aria-label="Subtle mountain background">
  <defs>
    <linearGradient id="sky" x1="0" y1="0" x2="0" y2="1">
      <stop offset="0%" stop-color="#edf2f7"/>
      <stop offset="68%" stop-color="#dce6f1"/>
      <stop offset="100%" stop-color="#c8d6e6"/>
    </linearGradient>
    <linearGradient id="mountainFar" x1="0" y1="0" x2="1" y2="1">
      <stop offset="0%" stop-color="#d8e3ef"/>
      <stop offset="100%" stop-color="#bccdde"/>
    </linearGradient>
    <linearGradient id="mountainMid" x1="0" y1="0" x2="1" y2="1">
      <stop offset="0%" stop-color="#cad9e8"/>
      <stop offset="100%" stop-color="#9db2c8"/>
    </linearGradient>
    <linearGradient id="ridge" x1="0" y1="0" x2="0" y2="1">
      <stop offset="0%" stop-color="#9bb0c4"/>
      <stop offset="100%" stop-color="#768ea6"/>
    </linearGradient>
  </defs>
  <rect width="1600" height="420" fill="url(#sky)"/>
  <path d="M560 290 760 118 900 238 1060 110 1240 262 1470 160 1600 260V420H560z" fill="url(#mountainFar)" opacity=".78"/>
  <path d="M500 334 720 156 860 254 1025 168 1210 286 1400 198 1600 286V420H500z" fill="url(#mountainMid)" opacity=".82"/>
  <path d="M640 360 845 220 980 308 1140 232 1325 334 1600 246V420H640z" fill="url(#ridge)" opacity=".75"/>
  <path d="M1120 420v-84l20 7v77zm22 0v-96l22 8v88zm24 0v-114l24 9v105zm28 0v-104l21 8v96zm26 0v-80l16 6v74zm20 0v-66l13 5v61zm16 0v-52l11 4v48zm14 0v-38l8 3v35z" fill="#5f7690" opacity=".48"/>
  <path d="M1020 420v-72l17 6v66zm19 0v-86l20 8v78zm23 0v-71l16 6v65zm19 0v-55l11 4v51z" fill="#6f88a3" opacity=".42"/>
  <rect y="352" width="1600" height="68" fill="url(#sky)" opacity=".46"/>
</svg>
