<svg width="512" height="512" viewBox="0 0 512 512" xmlns="http://www.w3.org/2000/svg" role="img" aria-label="Hillside Hidden Resort app icon">
  <defs>
    <linearGradient id="bg" x1="0" x2="1" y1="0" y2="1">
      <stop offset="0%" stop-color="#0E1F33"/>
      <stop offset="100%" stop-color="#10294A"/>
    </linearGradient>
  </defs>
  <rect width="512" height="512" rx="112" fill="url(#bg)"/>
  <circle cx="256" cy="256" r="198" fill="#F2F6F8" stroke="#0E1F33" stroke-width="16"/>
  <path d="M109 312c48-48 104-72 166-72 47 0 89 14 132 40-24 36-54 63-93 76-69 24-130 6-205-44Z" fill="#22A699"/>
  <path d="M64 329h387c-13 36-37 71-75 97H140c-38-20-63-51-76-97Z" fill="#0E1F33"/>
  <path d="M144 353c25-38 60-58 122-67-31 18-58 43-74 69-18 29-43 50-82 67l34-69Z" fill="#F2F6F8"/>
  <path d="M123 325c102-70 173-98 257-98" stroke="#F2F6F8" stroke-width="16" stroke-linecap="round"/>
  <path d="M211 145h32v156h-32zM130 145h32v156h-32zM130 191c36-8 65-8 81 0v32c-21-8-44-8-81 0z" fill="#0E1F33"/>
  <circle cx="200" cy="119" r="21" fill="#FF8A4C"/>
  <path d="M348 166c17 0 27 9 35 21-16-8-32-8-50 0 7-12 11-21 15-21Z" fill="#22A699"/>
  <path d="M332 188c15 0 26 10 42 25-20-10-37-10-58 0 7-12 11-21 16-25Z" fill="#22A699"/>
  <path d="M343 160v67" stroke="#0E1F33" stroke-width="8" stroke-linecap="round"/>
</svg>
