<svg width="180" height="180" viewBox="0 0 180 180" fill="none" xmlns="http://www.w3.org/2000/svg">
  <g opacity="0.95">
    <path d="M89 154C86 130 87 106 92 81C98 52 112 31 137 18C132 40 121 60 107 77C101 85 95 93 90 101" fill="#D9E6F5"/>
    <path d="M89 154C92 129 102 108 116 91C132 72 152 63 173 63C158 79 139 91 121 103C110 110 100 117 91 126" fill="#D9E6F5"/>
    <path d="M89 154C85 132 75 114 61 99C46 82 27 72 8 69C23 84 41 97 58 108C69 116 79 124 88 133" fill="#D9E6F5"/>
    <path d="M89 154C89 132 94 113 103 98C114 80 130 68 151 62C141 82 127 97 113 112C104 121 95 130 89 141" fill="#D9E6F5"/>
    <path d="M89 154C86 136 80 120 71 107C59 91 43 80 24 76C33 92 46 104 58 116C68 125 77 134 84 143" fill="#D9E6F5"/>
  </g>
</svg>
